<?xml version="1.0" standalone="no"?>
<!DOCTYPE svg PUBLIC "-//W3C//DTD SVG 20010904//EN"
 "http://www.w3.org/TR/2001/REC-SVG-20010904/DTD/svg10.dtd">
<svg version="1.0" xmlns="http://www.w3.org/2000/svg"
 width="279.000000pt" height="279.000000pt" viewBox="0 0 279.000000 279.000000"
 preserveAspectRatio="xMidYMid meet">
<metadata>
Created by potrace 1.11, written by Peter Selinger 2001-2013
</metadata>
<g transform="translate(0.000000,279.000000) scale(0.100000,-0.100000)"
fill="#000000" stroke="none">
<path d="M1100 2641 c-77 -25 -158 -73 -205 -121 l-39 -40 -81 0 c-83 -1 -153
-18 -236 -60 -67 -35 -160 -135 -194 -208 -28 -61 -33 -66 -99 -99 -88 -44
-177 -132 -214 -210 -25 -54 -27 -67 -27 -193 1 -74 2 -151 3 -170 0 -19 -1
-97 -4 -173 -5 -138 -5 -139 25 -203 33 -71 103 -151 172 -198 144 -98 175
-116 231 -135 90 -30 227 -29 332 3 l78 25 25 -30 c30 -35 127 -90 202 -114
80 -26 233 -17 324 19 l67 27 60 -35 c33 -19 60 -33 60 -29 0 3 6 1 13 -5 7
-6 44 -18 82 -28 39 -9 78 -25 87 -35 10 -10 24 -21 31 -26 21 -13 167 -197
167 -210 0 -7 4 -13 9 -13 5 0 40 -49 76 -109 52 -84 71 -108 84 -103 9 3 18
8 21 12 3 3 27 22 55 41 52 36 72 51 112 84 l24 20 -61 174 c-59 167 -61 175
-43 188 10 7 26 20 36 28 9 8 17 13 17 10 0 -5 39 38 90 98 13 15 30 27 37 27
8 0 11 4 8 10 -3 6 4 10 16 10 12 0 20 3 17 6 -4 3 12 22 34 42 53 48 90 104
117 177 19 49 22 77 20 160 -2 84 0 105 16 130 11 17 22 32 26 35 8 6 50 102
52 121 2 8 5 19 9 24 3 6 5 53 4 106 -2 88 -5 101 -41 175 -29 59 -56 97 -112
151 -40 40 -73 78 -73 85 0 7 -12 38 -27 68 -14 30 -27 57 -27 60 -1 3 -15 25
-33 50 -41 61 -159 170 -208 195 -22 11 -43 24 -46 28 -3 5 -10 9 -15 10 -5 0
-28 9 -50 19 -110 48 -326 61 -457 28 -47 -12 -48 -12 -105 27 -90 63 -160 85
-282 89 -81 3 -117 -1 -160 -15z m313 -182 l40 -21 -53 -53 c-32 -33 -76 -64
-113 -80 -53 -24 -67 -27 -128 -21 -59 6 -69 5 -77 -11 -14 -28 -23 -131 -12
-138 5 -3 31 -8 58 -12 l48 -5 -4 -87 c-2 -47 1 -113 8 -146 7 -33 12 -68 12
-77 -1 -21 10 -22 96 -7 l64 11 -6 52 c-27 206 -22 224 113 353 53 51 102 92
109 93 6 0 12 6 12 14 0 30 142 75 240 76 85 0 161 -16 247 -51 65 -27 91 -45
155 -109 84 -83 120 -145 140 -241 10 -51 15 -58 55 -79 99 -53 169 -176 160
-281 -3 -30 -15 -75 -27 -99 l-22 -44 -79 83 c-106 110 -159 220 -159 327 0
24 -5 55 -10 69 -10 27 -12 27 -68 20 -31 -4 -63 -8 -71 -8 -20 0 -10 -130 19
-235 6 -24 13 -49 16 -56 5 -12 -64 -12 -277 1 -77 4 -96 3 -98 -8 -1 -8 -5
-44 -7 -81 l-6 -68 114 0 c139 -1 303 -15 343 -30 17 -6 30 -10 30 -9 0 2 20
-11 45 -28 71 -49 138 -125 146 -168 10 -56 -1 -146 -24 -191 -26 -50 -95
-116 -149 -143 -24 -12 -43 -28 -43 -37 0 -20 -67 -88 -109 -109 -18 -9 -54
-19 -79 -21 -25 -3 -48 -7 -51 -10 -5 -5 23 -93 50 -161 7 -15 13 -32 14 -38
0 -5 4 -17 7 -25 19 -48 26 -80 17 -85 -5 -4 -9 -2 -9 4 0 8 -92 136 -109 151
-3 3 -39 42 -80 88 -69 77 -75 82 -115 82 -51 1 -171 41 -171 57 0 15 198 173
267 214 55 32 101 38 167 20 23 -7 49 -10 56 -7 7 2 18 28 25 58 6 29 14 60
16 69 3 12 -9 20 -53 32 -72 20 -175 17 -225 -7 -20 -10 -43 -18 -50 -20 -12
-1 -60 -32 -98 -63 -248 -199 -319 -251 -388 -279 -116 -48 -252 -22 -344 64
l-48 45 0 123 c0 68 5 145 10 171 11 47 17 55 93 116 l27 22 -41 67 -40 66
-50 -31 c-42 -26 -82 -64 -130 -125 -8 -9 -19 -6 -52 16 -41 28 -199 123 -246
148 -22 12 -27 10 -48 -12 -13 -14 -23 -32 -23 -40 0 -7 -4 -14 -8 -14 -9 0
-36 -50 -30 -55 19 -15 201 -125 208 -125 4 0 10 -3 12 -7 2 -5 21 -20 43 -34
68 -44 99 -117 96 -226 -1 -39 -4 -44 -38 -59 -57 -25 -159 -32 -218 -15 -45
12 -72 28 -195 111 -112 77 -155 147 -155 255 0 39 3 79 6 90 10 36 22 60 33
67 7 4 2 27 -14 65 -36 86 -39 177 -8 245 14 29 37 67 52 85 36 42 120 90 183
103 50 11 50 12 57 56 12 87 82 185 156 219 22 10 40 21 40 25 0 8 3 8 91 16
38 4 90 1 120 -5 51 -11 55 -11 69 11 89 132 239 202 373 171 33 -8 78 -23
100 -34z"/>
</g>
</svg>
